<svg width="51" height="23" viewBox="0 0 51 23" fill="none" xmlns="http://www.w3.org/2000/svg">
<path d="M2.00074 8.855C2.00074 8.441 2.09274 8.01167 2.27674 7.567C2.46074 7.107 2.70608 6.68534 3.01274 6.302C3.31941 5.90334 3.64908 5.60434 4.00174 5.405L10.9707 1.38V3.68L4.00174 7.705V12.765L10.9707 8.74V11.04L4.00174 15.065V20.125L10.9707 16.1V18.4L4.00174 22.425C3.46508 22.7317 2.99741 22.77 2.59874 22.54C2.20008 22.31 2.00074 21.8883 2.00074 21.275V8.855ZM10.9707 16.1L4.00174 20.125L2.00074 18.975L8.96974 14.95L10.9707 16.1ZM10.9707 8.74L4.00174 12.765L2.00074 11.615L8.96974 7.59L10.9707 8.74ZM10.9707 1.38L4.00174 5.405C3.64908 5.60434 3.31941 5.90334 3.01274 6.302C2.70608 6.68534 2.46074 7.107 2.27674 7.567C2.09274 8.01167 2.00074 8.441 2.00074 8.855V21.275C2.00074 21.8883 2.20008 22.31 2.59874 22.54L0.597742 21.39C0.199076 21.16 -0.000257779 20.7383 -0.000257779 20.125V7.705C-0.000257779 7.291 0.0917422 6.86167 0.275742 6.417C0.459742 5.957 0.705076 5.53534 1.01174 5.152C1.31841 4.75334 1.64808 4.45434 2.00074 4.255L8.96974 0.230003L10.9707 1.38ZM18.9397 15.755C18.4184 16.0617 17.9584 16.1 17.5597 15.87C17.161 15.64 16.9617 15.2183 16.9617 14.605V21.505L14.9607 22.655V5.635L21.9297 1.61C22.451 1.30334 22.911 1.265 23.3097 1.495C23.7237 1.725 23.9307 2.14667 23.9307 2.76V10.58C23.9307 10.9787 23.831 11.408 23.6317 11.868C23.4477 12.328 23.2024 12.7573 22.8957 13.156C22.6044 13.5393 22.2824 13.8307 21.9297 14.03L18.9397 15.755ZM21.9297 3.91L16.9617 6.785V14.605L21.9297 11.73V3.91ZM16.9617 14.605C16.9617 15.2183 17.161 15.64 17.5597 15.87L15.5587 14.72C15.16 14.49 14.9607 14.0683 14.9607 13.455L16.9617 14.605ZM21.9297 3.91V11.73L19.9287 10.58V2.76L21.9297 3.91ZM21.9297 11.73L16.9617 14.605L14.9607 13.455L19.9287 10.58L21.9297 11.73ZM23.3327 1.495C22.9187 1.265 22.451 1.30334 21.9297 1.61L14.9607 5.635L12.9597 4.485L19.9287 0.460004C20.4654 0.153337 20.933 0.115004 21.3317 0.345004L23.3327 1.495ZM14.9607 5.635V22.655L12.9597 21.505V4.485L14.9607 5.635ZM31.5087 18.285V6.785L27.9207 8.855V6.555L37.0747 1.265V3.565L33.4867 5.635V17.135L37.0747 15.065V17.365L27.9207 22.655V20.355L31.5087 18.285ZM31.5087 18.285L27.9207 20.355L25.9197 19.205L29.5077 17.135L31.5087 18.285ZM27.9207 20.355V22.655L25.9197 21.505V19.205L27.9207 20.355ZM37.0747 15.065L33.4867 17.135L31.5087 15.985L35.0967 13.915L37.0747 15.065ZM31.5087 6.785V18.285L29.5077 17.135V5.635L31.5087 6.785ZM37.0747 1.265L27.9207 6.555L25.9197 5.405L35.0967 0.115003L37.0747 1.265ZM27.9207 6.555V8.855L25.9197 7.705V5.405L27.9207 6.555ZM43.0838 14.605C42.5471 14.9117 42.0794 14.95 41.6808 14.72C41.2821 14.49 41.0828 14.0683 41.0828 13.455V7.935C41.0828 7.521 41.1748 7.09167 41.3588 6.647C41.5428 6.187 41.7881 5.76534 42.0948 5.382C42.4014 4.98334 42.7311 4.68434 43.0838 4.485L48.0518 1.61C48.5731 1.30334 49.0331 1.265 49.4318 1.495C49.8458 1.725 50.0528 2.14667 50.0528 2.76V5.98L48.0518 7.13V3.91L43.0838 6.785V12.305L48.0518 9.43C48.5731 9.12334 49.0331 9.085 49.4318 9.315C49.8458 9.545 50.0528 9.96667 50.0528 10.58V16.1C50.0528 16.4987 49.9531 16.928 49.7538 17.388C49.5698 17.848 49.3244 18.2773 49.0178 18.676C48.7264 19.0593 48.4044 19.3507 48.0518 19.55L43.0838 22.425C42.5471 22.7317 42.0794 22.77 41.6808 22.54C41.2821 22.31 41.0828 21.8883 41.0828 21.275V18.975L43.0838 17.825V20.125L48.0518 17.25V11.73L43.0838 14.605ZM48.0518 11.73V17.25L46.0508 16.1V10.58L48.0518 11.73ZM48.0518 17.25L43.0838 20.125L41.0828 18.975L46.0508 16.1L48.0518 17.25ZM48.0518 3.91V7.13L46.0508 5.98V2.76L48.0518 3.91ZM43.0838 17.825L41.0828 18.975L39.0818 17.825L41.0828 16.675L43.0838 17.825ZM41.0828 18.975V21.275C41.0828 21.8883 41.2821 22.31 41.6808 22.54L39.6798 21.39C39.2811 21.16 39.0818 20.7383 39.0818 20.125V17.825L41.0828 18.975ZM49.4548 9.315C49.0408 9.085 48.5731 9.12334 48.0518 9.43L43.0838 12.305L41.0828 11.155L46.0508 8.28C46.5874 7.97334 47.0551 7.935 47.4538 8.165L49.4548 9.315ZM49.4548 1.495C49.0408 1.265 48.5731 1.30334 48.0518 1.61L43.0838 4.485C42.7311 4.68434 42.4014 4.98334 42.0948 5.382C41.7881 5.76534 41.5428 6.187 41.3588 6.647C41.1748 7.09167 41.0828 7.521 41.0828 7.935V13.455C41.0828 14.0683 41.2821 14.49 41.6808 14.72L39.6798 13.57C39.2811 13.34 39.0818 12.9183 39.0818 12.305V6.785C39.0818 6.371 39.1738 5.94167 39.3578 5.497C39.5418 5.037 39.7871 4.61534 40.0938 4.232C40.4004 3.83334 40.7301 3.53434 41.0828 3.335L46.0508 0.460004C46.5874 0.153337 47.0551 0.115004 47.4538 0.345004L49.4548 1.495Z" fill="#1363DF"/>
</svg>
