<svg width="56" height="56" viewBox="0 0 56 56" fill="none" xmlns="http://www.w3.org/2000/svg">
<rect width="56" height="56" rx="28" fill="#DFF6FF"/>
<path d="M37.6602 26.44L36.6802 30.62C35.8402 34.23 34.1802 35.69 31.0602 35.39C30.5602 35.35 30.0202 35.26 29.4402 35.12L27.7602 34.72C23.5902 33.73 22.3002 31.67 23.2802 27.49L24.2602 23.3C24.4602 22.45 24.7002 21.71 25.0002 21.1C26.1702 18.68 28.1602 18.03 31.5002 18.82L33.1702 19.21C37.3602 20.19 38.6402 22.26 37.6602 26.44Z" stroke="#1363DF" stroke-width="1.5" stroke-linecap="round" stroke-linejoin="round"/>
<path d="M31.0599 35.3901C30.4399 35.8101 29.6599 36.1601 28.7099 36.4701L27.1299 36.9901C23.1599 38.2701 21.0699 37.2001 19.7799 33.2301L18.4999 29.2801C17.2199 25.3101 18.2799 23.2101 22.2499 21.9301L23.8299 21.4101C24.2399 21.2801 24.6299 21.1701 24.9999 21.1001C24.6999 21.7101 24.4599 22.4501 24.2599 23.3001L23.2799 27.4901C22.2999 31.6701 23.5899 33.7301 27.7599 34.7201L29.4399 35.1201C30.0199 35.2601 30.5599 35.3501 31.0599 35.3901Z" stroke="#1363DF" stroke-width="1.5" stroke-linecap="round" stroke-linejoin="round"/>
<path d="M28.6401 24.53L33.4901 25.76" stroke="#1363DF" stroke-width="1.5" stroke-linecap="round" stroke-linejoin="round"/>
<path d="M27.6602 28.3999L30.5602 29.1399" stroke="#1363DF" stroke-width="1.5" stroke-linecap="round" stroke-linejoin="round"/>
</svg>
